<?xml version="1.0" encoding="utf-8"?>
<!-- Generator: Adobe Illustrator 16.0.0, SVG Export Plug-In . SVG Version: 6.00 Build 0)  -->
<!DOCTYPE svg PUBLIC "-//W3C//DTD SVG 1.1//EN" "http://www.w3.org/Graphics/SVG/1.1/DTD/svg11.dtd">
<svg version="1.1" id="图层_1" xmlns="http://www.w3.org/2000/svg" xmlns:xlink="http://www.w3.org/1999/xlink" x="0px" y="0px"
	 width="150px" height="50px" viewBox="0 0 150 50" enable-background="new 0 0 150 50" xml:space="preserve">
<g>
	<g>
		<g>
			<path fill="#0075BE" d="M48.848,36.459v-4.46h3.692v0.755h-2.688v0.988h2.5v0.752h-2.5v1.214h2.781v0.751H48.848L48.848,36.459z"
				/>
			<path fill="#0075BE" d="M57.977,36.459h-1.095l-0.435-1.014h-1.99l-0.411,1.014H52.98l1.939-4.46h1.062L57.977,36.459z
				 M56.125,34.693l-0.688-1.654l-0.672,1.654H56.125z"/>
			<path fill="#0075BE" d="M58.254,35.009l0.979-0.086c0.062,0.294,0.181,0.511,0.357,0.649c0.18,0.137,0.424,0.205,0.729,0.205
				c0.324,0,0.568-0.062,0.731-0.188c0.164-0.124,0.246-0.267,0.246-0.432c0-0.104-0.034-0.194-0.103-0.271
				c-0.07-0.074-0.19-0.14-0.362-0.188c-0.118-0.036-0.386-0.104-0.806-0.194c-0.539-0.12-0.916-0.27-1.133-0.438
				c-0.311-0.244-0.459-0.544-0.459-0.896c0-0.229,0.068-0.438,0.215-0.639c0.145-0.197,0.351-0.353,0.621-0.451
				c0.27-0.104,0.599-0.155,0.979-0.155c0.626,0,1.098,0.123,1.412,0.368c0.314,0.246,0.479,0.574,0.497,0.98l-1.007,0.041
				c-0.043-0.229-0.135-0.396-0.275-0.495c-0.143-0.104-0.354-0.147-0.637-0.147c-0.295,0-0.521,0.054-0.688,0.16
				c-0.106,0.066-0.159,0.161-0.159,0.273c0,0.104,0.051,0.191,0.148,0.271c0.127,0.098,0.436,0.193,0.924,0.299
				c0.488,0.106,0.852,0.211,1.085,0.321c0.234,0.105,0.417,0.262,0.552,0.452c0.133,0.188,0.196,0.43,0.196,0.711
				c0,0.256-0.078,0.492-0.235,0.719c-0.158,0.227-0.383,0.393-0.672,0.497c-0.291,0.105-0.65,0.163-1.084,0.163
				c-0.631,0-1.113-0.131-1.451-0.396C58.521,35.887,58.318,35.508,58.254,35.009z"/>
			<path fill="#0075BE" d="M64.454,36.459v-1.877l-1.823-2.583h1.178l1.172,1.765l1.148-1.765h1.158l-1.831,2.59v1.87H64.454
				L64.454,36.459z"/>
			<path fill="#0075BE" d="M72.646,36.459v-3.705h-1.479v-0.755h3.957v0.755H73.65v3.705H72.646z"/>
			<path fill="#0075BE" d="M75.777,36.459v-4.46h2.115c0.527,0,0.918,0.04,1.155,0.12c0.24,0.08,0.438,0.223,0.579,0.428
				s0.221,0.439,0.221,0.703c0,0.334-0.109,0.611-0.33,0.829c-0.223,0.218-0.547,0.354-0.983,0.411
				c0.218,0.115,0.397,0.238,0.538,0.375c0.142,0.135,0.332,0.378,0.572,0.725l0.604,0.869h-1.2l-0.729-0.971
				c-0.258-0.35-0.436-0.565-0.526-0.655c-0.097-0.091-0.194-0.151-0.306-0.187c-0.104-0.033-0.272-0.053-0.506-0.053h-0.203v1.857
				L75.777,36.459L75.777,36.459z M76.781,33.886h0.744c0.479,0,0.783-0.018,0.898-0.054c0.12-0.037,0.219-0.1,0.282-0.189
				c0.063-0.088,0.104-0.197,0.104-0.334c0-0.146-0.045-0.271-0.138-0.361c-0.089-0.096-0.216-0.146-0.379-0.18
				c-0.081-0.008-0.321-0.014-0.729-0.014h-0.783V33.886L76.781,33.886z"/>
			<path fill="#0075BE" d="M85.287,36.459h-1.096l-0.438-1.014h-1.986l-0.41,1.014h-1.065l1.938-4.46h1.062L85.287,36.459z
				 M83.436,34.693l-0.687-1.654l-0.673,1.654H83.436z"/>
			<path fill="#0075BE" d="M85.829,36.459v-4.46h0.978l2.039,2.978v-2.978h0.934v4.46h-1.01l-2.006-2.908v2.908H85.829z"/>
			<path fill="#0075BE" d="M90.587,35.009l0.978-0.086c0.062,0.294,0.184,0.511,0.358,0.649c0.181,0.137,0.425,0.205,0.729,0.205
				c0.324,0,0.568-0.062,0.729-0.188c0.164-0.121,0.246-0.267,0.246-0.432c0-0.104-0.031-0.194-0.104-0.271
				c-0.067-0.074-0.188-0.14-0.36-0.188c-0.117-0.036-0.388-0.104-0.806-0.194c-0.539-0.12-0.918-0.27-1.135-0.438
				c-0.309-0.244-0.457-0.544-0.457-0.896c0-0.229,0.067-0.438,0.215-0.639c0.145-0.197,0.353-0.353,0.621-0.451
				c0.271-0.104,0.599-0.155,0.979-0.155c0.625,0,1.1,0.123,1.41,0.368c0.312,0.246,0.479,0.574,0.498,0.98l-1.008,0.041
				c-0.043-0.229-0.137-0.396-0.273-0.495c-0.146-0.104-0.354-0.147-0.641-0.147c-0.291,0-0.521,0.054-0.688,0.16
				c-0.105,0.066-0.158,0.161-0.158,0.273c0,0.104,0.051,0.191,0.148,0.271c0.126,0.098,0.436,0.193,0.923,0.299
				c0.487,0.104,0.853,0.211,1.085,0.321c0.232,0.105,0.418,0.262,0.553,0.452c0.131,0.188,0.196,0.43,0.196,0.711
				c0,0.256-0.078,0.492-0.235,0.719c-0.158,0.227-0.384,0.393-0.675,0.497c-0.289,0.105-0.647,0.163-1.082,0.163
				c-0.629,0-1.112-0.131-1.45-0.396C90.852,35.886,90.652,35.508,90.587,35.009z"/>
			<path fill="#0075BE" d="M95.486,36.459v-4.46H98.9v0.755h-2.408v1.057h2.078v0.758h-2.078v1.896L95.486,36.459L95.486,36.459z"/>
			<path fill="#0075BE" d="M99.729,36.459v-4.46h3.691v0.755h-2.688v0.988h2.5v0.752h-2.5v1.214h2.781v0.751H99.729L99.729,36.459z"
				/>
			<path fill="#0075BE" d="M104.371,36.459v-4.46h2.115c0.531,0,0.92,0.04,1.16,0.12s0.434,0.223,0.578,0.428
				c0.146,0.205,0.219,0.439,0.219,0.703c0,0.334-0.11,0.611-0.33,0.829c-0.219,0.218-0.547,0.354-0.985,0.411
				c0.22,0.115,0.397,0.238,0.539,0.375c0.142,0.135,0.333,0.378,0.571,0.725l0.609,0.869h-1.203l-0.729-0.971
				c-0.258-0.35-0.437-0.565-0.526-0.655c-0.099-0.091-0.197-0.151-0.305-0.187c-0.105-0.033-0.273-0.053-0.507-0.053h-0.204v1.857
				L104.371,36.459L104.371,36.459z M105.376,33.886h0.744c0.481,0,0.782-0.018,0.903-0.054c0.119-0.037,0.215-0.1,0.281-0.189
				c0.063-0.088,0.102-0.197,0.102-0.334c0-0.146-0.045-0.271-0.133-0.361c-0.09-0.096-0.217-0.146-0.379-0.18
				c-0.082-0.008-0.326-0.014-0.733-0.014h-0.785V33.886L105.376,33.886z"/>
		</g>
	</g>
	<g>
		<path fill="#FFFFFF" d="M50.716,20.232v-6.328h12.181v6.328H54.84c-0.172,0.254-0.43,0.593-0.773,1.014l-0.064,0.127h9.667
			c0,0.465-0.044,1.352-0.129,2.658c-0.044,0.633-0.064,1.098-0.064,1.393c-0.043,1.855-0.924,2.742-2.643,2.658
			c-0.173,0-0.473,0-0.902,0c-0.602,0.041-1.053,0.062-1.354,0.062c-0.043-0.254-0.129-0.637-0.258-1.143
			c-0.043-0.253-0.086-0.422-0.129-0.506c0.729,0.043,1.375,0.062,1.934,0.062c0.988,0.043,1.482-0.42,1.482-1.394
			c0.043-0.253,0.086-0.634,0.129-1.14c0.043-0.551,0.062-0.932,0.062-1.144h-1.676c-0.688,2.32-2.256,4.177-4.704,5.568
			c-0.086-0.042-0.193-0.125-0.322-0.252c-0.516-0.382-0.924-0.655-1.225-0.822c2.361-1.182,3.822-2.68,4.382-4.494H56.45
			c-1.117,2.193-3.18,3.902-6.187,5.126c-0.345-0.51-0.773-0.974-1.289-1.396c2.663-0.892,4.468-2.13,5.413-3.733H52.52
			c-0.515,0.506-1.332,1.16-2.448,1.961c-0.516-0.591-0.925-1.033-1.225-1.328c1.547-0.888,2.812-1.979,3.802-3.293h-1.933V20.232
			L50.716,20.232z M52.648,15.424V16.5h8.313v-1.076H52.648z M52.648,17.702v1.075h8.313v-1.075H52.648z"/>
		<path fill="#FFFFFF" d="M67.084,27.322c-0.604-0.338-1.16-0.569-1.676-0.696c0.602-1.181,1.072-2.446,1.418-3.797l1.805,0.569
			C68.027,25.129,67.515,26.438,67.084,27.322z M66.763,21.941v-8.037h12.824v8.037h-5.991c0.086,0.127,0.215,0.313,0.387,0.566
			c0.52,0.723,0.9,1.312,1.16,1.771l-1.677,0.887c-0.475-0.929-0.967-1.771-1.481-2.531l1.547-0.693H66.763L66.763,21.941z
			 M68.695,15.486v1.709h3.545v-1.709H68.695z M68.695,18.652v1.707h3.545v-1.707H68.695z M71.531,28.02
			c-1.59,0.041-2.363-0.676-2.32-2.146v-2.912h1.869v2.341c-0.043,0.767,0.344,1.118,1.16,1.076h2.256
			c0.729,0.042,1.158-0.253,1.288-0.886c0.042-0.129,0.086-0.422,0.129-0.893c0.042-0.209,0.063-0.354,0.063-0.438
			c0.086,0.042,0.189,0.084,0.318,0.126c0.729,0.212,1.246,0.355,1.551,0.439c-0.091,0.508-0.236,1.101-0.451,1.771v0.062
			c-0.262,1.017-1.058,1.495-2.388,1.454L71.531,28.02L71.531,28.02z M77.717,15.486h-3.607v1.709h3.607V15.486z M74.109,18.652
			v1.707h3.604v-1.707H74.109z M79.393,27.006c-0.729-1.224-1.459-2.404-2.188-3.544l1.547-0.823
			c0.128,0.213,0.318,0.512,0.579,0.891c0.474,0.634,1.054,1.52,1.737,2.654L79.393,27.006z"/>
		<path fill="#FFFFFF" d="M84.549,21.119c-0.387-0.337-0.988-0.844-1.805-1.521c-0.387-0.338-0.688-0.591-0.902-0.761l1.289-1.393
			c0.172,0.126,0.451,0.338,0.838,0.633c0.902,0.675,1.547,1.183,1.934,1.519L84.549,21.119z M84.291,28.336l-1.998-0.633
			c0.516-1.396,1.074-3.271,1.676-5.635c0.602,0.213,1.245,0.423,1.934,0.633c-0.172,0.55-0.43,1.479-0.771,2.785
			C84.743,26.71,84.462,27.66,84.291,28.336z M85.129,17.068c-0.561-0.51-1.396-1.201-2.514-2.088c0.086,0.086,0,0.021-0.258-0.188
			l1.289-1.329c0.172,0.126,0.402,0.295,0.709,0.506c0.982,0.676,1.691,1.202,2.127,1.582L85.129,17.068z M86.998,27.575V14.158
			h10.117v1.835h-8.12v9.874h8.313v1.708H86.998z"/>
	</g>
	<g>
		<path fill="#FFFFFF" d="M25.478,11.152c9.401,0,17.022,7.609,17.022,17.002c0,2.496-0.54,4.869-1.508,7.004
			c1.328-2.422,2.085-5.201,2.085-8.157c0-9.39-7.621-17.001-17.022-17.001c-6.901,0-12.842,4.102-15.516,9.996
			C13.432,14.727,19.037,11.152,25.478,11.152z"/>
		<path fill="#FFFFFF" d="M26.056,14.034c4.629,0,8.666,2.532,10.798,6.286c-1.914-4.379-6.286-7.439-11.375-7.439
			c-6.853,0-12.406,5.549-12.406,12.395c0,2.222,0.585,4.305,1.608,6.104c-0.663-1.517-1.032-3.188-1.032-4.951
			C13.648,19.582,19.204,14.034,26.056,14.034z"/>
		<path fill="#FFFFFF" d="M22.022,35.966c-4.629,0-8.666-2.532-10.798-6.286c1.913,4.379,6.286,7.439,11.375,7.439
			c6.852,0,12.406-5.549,12.406-12.396c0-2.221-0.585-4.304-1.608-6.104c0.663,1.517,1.031,3.189,1.031,4.952
			C34.43,30.418,28.875,35.966,22.022,35.966z"/>
		<path fill="#FFFFFF" d="M22.6,38.848c-9.401,0-17.022-7.607-17.022-17c0-2.496,0.539-4.869,1.508-7.005
			C5.756,17.264,5,20.043,5,23c0,9.389,7.621,17,17.022,17c6.9,0,12.843-4.102,15.515-9.996
			C34.646,35.273,29.041,38.848,22.6,38.848z"/>
		<path fill="#FFFFFF" d="M30.504,19.208c-0.258-0.288-0.536-0.558-0.829-0.812c-0.374-0.318-0.774-0.608-1.199-0.861
			c-0.823-0.491-1.733-0.854-2.703-1.049c-0.561-0.114-1.141-0.178-1.735-0.178c-0.595,0-1.175,0.062-1.735,0.178
			c-0.97,0.193-1.88,0.558-2.703,1.049c-0.425,0.253-0.825,0.543-1.199,0.861c-0.294,0.252-0.571,0.521-0.829,0.812
			c-1.375,1.537-2.211,3.567-2.211,5.792s0.836,4.255,2.211,5.792c0.258,0.288,0.535,0.558,0.829,0.81
			c0.374,0.32,0.774,0.609,1.199,0.863c0.823,0.491,1.733,0.854,2.703,1.049c0.561,0.113,1.141,0.178,1.735,0.178
			c0.594,0,1.174-0.062,1.735-0.178c0.97-0.193,1.88-0.558,2.703-1.049c0.425-0.254,0.825-0.543,1.199-0.863
			c0.293-0.252,0.571-0.521,0.829-0.81c1.374-1.537,2.21-3.567,2.21-5.792S31.878,20.745,30.504,19.208z M31.538,24.463h-2.309
			c-0.077-1.243-0.415-2.414-0.959-3.462c0.502-0.281,0.972-0.61,1.406-0.981C30.735,21.221,31.417,22.764,31.538,24.463z
			 M24.535,18.607c0.799,0.498,1.5,1.139,2.062,1.892c-0.65,0.235-1.342,0.382-2.062,0.429V18.607z M23.377,20.917
			c-0.66-0.058-1.296-0.201-1.896-0.418c0.522-0.701,1.166-1.304,1.896-1.786V20.917z M23.377,22.077v2.386h-3.368
			c0.076-1.062,0.372-2.068,0.844-2.966C21.644,21.811,22.493,22.009,23.377,22.077z M23.377,25.621v2.302
			c-0.885,0.068-1.733,0.271-2.524,0.579c-0.459-0.873-0.752-1.848-0.837-2.881H23.377z M23.377,29.083v2.204
			c-0.73-0.48-1.374-1.086-1.896-1.785C22.081,29.284,22.717,29.141,23.377,29.083z M24.535,29.072
			c0.72,0.047,1.412,0.189,2.062,0.43c-0.562,0.752-1.263,1.395-2.062,1.891V29.072z M24.535,27.91v-2.289h3.527
			c-0.085,1.033-0.378,2.008-0.837,2.881C26.383,28.17,25.479,27.965,24.535,27.91z M24.535,24.463V22.09
			c0.945-0.055,1.849-0.26,2.689-0.593c0.472,0.897,0.769,1.899,0.844,2.966H24.535L24.535,24.463z M25.773,17.675
			c1.147,0.271,2.192,0.804,3.07,1.533c-0.365,0.303-0.757,0.572-1.174,0.803c-0.616-0.878-1.39-1.637-2.28-2.229
			c-0.125-0.084-0.253-0.164-0.383-0.241C25.267,17.568,25.522,17.615,25.773,17.675z M22.304,17.675
			c0.251-0.06,0.507-0.104,0.768-0.14c-0.13,0.078-0.258,0.156-0.383,0.24c-0.891,0.599-1.664,1.354-2.28,2.23
			c-0.417-0.229-0.811-0.5-1.174-0.803C20.11,18.479,21.156,17.945,22.304,17.675z M18.402,20.02c0.433,0.371,0.904,0.7,1.405,0.981
			c-0.543,1.048-0.882,2.219-0.958,3.462h-2.31C16.661,22.764,17.342,21.221,18.402,20.02z M16.545,25.621h2.31
			c0.086,1.211,0.42,2.354,0.952,3.378c-0.501,0.28-0.972,0.61-1.405,0.981C17.359,28.799,16.683,27.287,16.545,25.621z
			 M22.304,32.326c-1.147-0.271-2.193-0.805-3.069-1.534c0.363-0.304,0.756-0.571,1.174-0.803c0.616,0.878,1.389,1.637,2.28,2.229
			c0.125,0.084,0.253,0.16,0.383,0.238C22.811,32.432,22.555,32.385,22.304,32.326z M25.773,32.326
			c-0.251,0.059-0.507,0.104-0.768,0.139c0.129-0.078,0.257-0.156,0.383-0.242c0.891-0.597,1.664-1.354,2.28-2.229
			c0.417,0.229,0.81,0.499,1.174,0.803C27.966,31.521,26.921,32.055,25.773,32.326z M29.675,29.98
			c-0.434-0.371-0.904-0.701-1.406-0.981c0.531-1.024,0.867-2.167,0.952-3.378h2.31C31.395,27.287,30.718,28.799,29.675,29.98z"/>
	</g>
</g>
</svg>
